<svg width="56" height="66" viewBox="0 0 56 66" fill="none" xmlns="http://www.w3.org/2000/svg">
  <ellipse cx="27.8569" cy="37.6879" rx="19.24" ry="19.1262" transform="rotate(27.2158 27.8569 37.6879)" fill="#7EC95C" />
  <path d="M42.5282 7.80515C40.5443 6.65974 37.9597 7.70682 36.7206 9.85309L24.7974 30.5046C21.8035 31.6742 19.0289 32.7788 17.3373 35.4564C17.3298 35.4683 17.324 35.4804 17.3166 35.4923L2.11106 49.8122C2.03151 49.8834 1.97012 49.9725 1.93205 50.0722C1.89397 50.1719 1.88033 50.2793 1.89223 50.3853C1.90414 50.4913 1.94125 50.593 2.00047 50.6817C2.0597 50.7704 2.13932 50.8435 2.23265 50.8951L25.359 64.2471C25.4503 64.3021 25.5535 64.3345 25.6599 64.3414C25.7663 64.3484 25.8729 64.3297 25.9707 64.287C26.0685 64.2443 26.1546 64.1788 26.2219 64.096C26.2892 64.0132 26.3357 63.9154 26.3576 63.811L31.1562 43.4826L31.177 43.4467C32.65 40.643 32.2194 37.6877 31.7353 34.5102L43.6585 13.8587C44.8976 11.7124 44.5121 8.95057 42.5282 7.80515ZM41.86 8.96251C43.0791 9.66634 43.4358 11.5739 42.5021 13.1911L30.4746 34.0235C30.3986 34.1548 30.3695 34.3082 30.3922 34.4582C30.8594 37.5255 31.1785 40.0315 30.1781 42.3396L18.7956 35.7679C20.2942 33.7474 22.624 32.7708 25.514 31.6417C25.6553 31.5864 25.7735 31.4846 25.8493 31.3531L37.8769 10.5207C38.8105 8.90355 40.6409 8.25867 41.86 8.96251ZM17.8925 36.7896L23.8186 40.2111L29.7448 43.6325L25.2501 62.6415L18.511 58.7506L23.1883 50.6492C23.2401 50.5671 23.2734 50.4747 23.2859 50.3785C23.2984 50.2822 23.2898 50.1844 23.2607 50.0919C23.2316 49.9994 23.1827 49.9143 23.1173 49.8426C23.052 49.7709 22.9719 49.7144 22.8825 49.6769C22.7284 49.6119 22.5555 49.6072 22.3981 49.6637C22.2406 49.7201 22.11 49.8335 22.032 49.9816L17.3546 58.083L11.5731 54.745L14.2459 50.1156C14.2976 50.0335 14.3309 49.9412 14.3434 49.8449C14.3559 49.7487 14.3473 49.6509 14.3182 49.5584C14.2891 49.4658 14.2402 49.3808 14.1749 49.3091C14.1095 49.2374 14.0294 49.1809 13.94 49.1433C13.7859 49.0784 13.613 49.0737 13.4556 49.1301C13.2981 49.1865 13.1675 49.3 13.0895 49.448L10.4167 54.0774L3.67758 50.1866L17.8925 36.7896Z" fill="#675A54" stroke="#675A54" />
</svg>
