<svg width="79" height="63" viewBox="0 0 79 63" fill="none" xmlns="http://www.w3.org/2000/svg">
<circle cx="25.5" cy="25.5" r="25.5" fill="#69B246"/>
<g clip-path="url(#clip0)">
<path d="M20.7587 36.181C21.108 36.181 21.476 36.1824 21.8601 36.1842C22.273 36.186 22.7088 36.1883 23.1643 36.1883C25.6595 36.1883 28.7362 36.1274 31.7048 35.6573C36.0755 34.9643 39.2739 33.5589 41.4831 31.3598C43.6826 29.1703 44.7982 26.2553 44.7982 22.6953C44.7982 19.2946 45.9847 16.5077 48.426 14.1768C50.5454 12.153 53.612 10.505 57.5396 9.27914C64.2298 7.19083 71.9459 6.75229 77.2413 6.75229C78.2126 6.75229 79 5.96494 79 4.9931C79 4.02173 78.2126 3.23438 77.2413 3.23438C71.7014 3.23438 63.6045 3.70038 56.4913 5.92099C52.0423 7.30984 48.5111 9.23154 45.9966 11.6325C42.8669 14.6208 41.2803 18.3433 41.2803 22.6953C41.2803 25.3215 40.5346 27.3402 39.0011 28.8669C35.1224 32.7276 26.8296 32.6896 21.8766 32.6663C21.4866 32.6645 21.113 32.6631 20.7587 32.6631C19.7874 32.6631 19 33.4504 19 34.4218C19 35.3932 19.7874 36.181 20.7587 36.181Z" fill="#675A54"/>
<path d="M77.2413 9.91943C73.0701 9.91943 67.0464 10.3864 62.0353 12.6125C56.1283 15.2364 53.0063 19.7549 53.0063 25.6802C53.0063 25.8922 53.0128 26.1142 53.0233 26.3458C49.9961 26.9922 47.7178 29.6861 47.7178 32.9033C47.7178 33.7822 47.8858 34.6364 48.2104 35.4315C46.7876 36.9092 45.9705 38.8931 45.9705 40.9833C45.9705 43.7523 47.3855 46.2782 49.6665 47.7316C49.667 48.4109 49.7681 49.2033 50.0272 50.0159C44.9341 54.6933 35.0991 57.0641 20.7587 57.0641C19.7874 57.0641 19 57.8514 19 58.8228C19 59.7942 19.7874 60.582 20.7587 60.582C35.7903 60.582 46.0209 58.11 51.9247 53.0376C53.6692 54.6759 56.0702 55.2728 58.2001 55.4298V61.0365C58.2001 62.0084 58.9875 62.7957 59.9589 62.7957C60.9307 62.7957 61.718 62.0084 61.718 61.0365V55.3378C65.7683 54.8128 67.8617 52.8828 68.9269 51.2234C69.6529 50.0928 70.0448 48.8403 70.1519 47.7943C72.4911 46.3515 73.9472 43.793 73.9472 40.9833C73.9472 38.8931 73.1306 36.9092 71.7078 35.4315C72.0324 34.6359 72.2004 33.7822 72.2004 32.9033C72.2004 29.5575 69.7372 26.7757 66.5287 26.2767C65.8031 23.358 63.16 21.1887 60.0202 21.1887C59.0067 21.1887 58.0459 21.4157 57.1839 21.8199C58.164 19.2354 60.2422 17.2578 63.463 15.8273C65.918 14.7369 70.3011 13.4369 77.2408 13.4369C78.2122 13.4369 79 12.6495 79 11.6782C79 10.7068 78.2126 9.91943 77.2413 9.91943ZM60.0202 24.7066C61.7739 24.7066 63.2017 26.1307 63.2085 27.883L63.2062 27.9512C63.1966 28.4557 63.4044 28.9404 63.7766 29.2815C64.1488 29.6225 64.65 29.7873 65.1513 29.7337C65.2671 29.7214 65.3824 29.7154 65.4941 29.7154C67.252 29.7154 68.6825 31.1455 68.6825 32.9033C68.6825 33.5886 68.4682 34.2418 68.0627 34.792C67.7798 35.1752 67.6649 35.6572 67.7436 36.1269C67.8228 36.5965 68.0887 37.0145 68.481 37.2845C69.701 38.1241 70.4293 39.507 70.4293 40.9837C70.4293 42.7924 69.3526 44.4156 67.6864 45.1192C67.2483 45.3046 66.9036 45.6589 66.7315 46.102C66.5964 46.4485 66.5758 46.8262 66.6678 47.1809C66.6743 47.549 66.5053 48.8275 65.4955 49.9358C64.2733 51.2784 62.2513 51.9591 59.4869 51.9591C56.8658 51.9591 54.9665 51.3187 53.9942 50.107C53.1208 49.0184 53.1492 47.6662 53.2096 47.3141C53.3451 46.9218 53.3382 46.492 53.1867 46.102C53.0141 45.6589 52.6694 45.3046 52.2314 45.1192C50.5651 44.4156 49.4884 42.7919 49.4884 40.9833C49.4884 39.5065 50.2167 38.1236 51.4367 37.2845C51.8294 37.014 52.0954 36.5965 52.1746 36.1264C52.2533 35.6567 52.138 35.1752 51.8555 34.7916C51.45 34.2413 51.2357 33.5886 51.2357 32.9033C51.2357 31.1455 52.6658 29.715 54.424 29.715C54.56 29.715 54.6978 29.7246 54.8456 29.7443C55.3533 29.8106 55.866 29.6532 56.2482 29.3117C56.6305 28.9697 56.8442 28.4785 56.8342 27.9659L56.8319 27.8867C56.8365 26.1325 58.2651 24.7066 60.0202 24.7066Z" fill="#675A54"/>
<path d="M23.8772 22.0365C23.4681 22.541 23.5468 23.28 24.0529 23.6876C24.559 24.0952 25.3007 24.0167 25.71 23.5125L27.8215 20.9092V26.4415C27.8215 27.0897 28.349 27.6155 28.9998 27.6155C29.6507 27.6155 30.1782 27.0897 30.1782 26.4415V20.9092L32.2897 23.5125C32.5226 23.7995 32.8631 23.9486 33.2068 23.9486C33.4668 23.9486 33.7286 23.8633 33.9468 23.6878C34.4529 23.2802 34.5316 22.5411 34.1225 22.0367L30.1782 17.1735V14.9712L32.2897 17.5746C32.5226 17.8617 32.8631 18.0108 33.2068 18.0108C33.4668 18.0108 33.7286 17.9254 33.9468 17.7499C34.4529 17.3423 34.5316 16.6033 34.1225 16.0989L30.1782 11.2356V9.03315L32.2897 11.6364C32.5226 11.9234 32.8631 12.0725 33.2068 12.0725C33.4668 12.0725 33.7286 11.987 33.9468 11.8117C34.4529 11.4041 34.5316 10.6649 34.1225 10.1606L29.9164 4.97473C29.6927 4.69883 29.3559 4.53857 28.9998 4.53857C28.6438 4.53857 28.3072 4.69883 28.0833 4.97473L23.8772 10.1606C23.4681 10.6649 23.5468 11.4041 24.0529 11.8117C24.559 12.2191 25.3007 12.1408 25.71 11.6364L27.8215 9.03315V11.2356L23.8772 16.0987C23.4681 16.6031 23.5468 17.3422 24.0529 17.7497C24.559 18.1573 25.3007 18.0789 25.71 17.5746L27.8215 14.9712V17.1735L23.8772 22.0365Z" fill="#675A54"/>
</g>
<defs>
<clipPath id="clip0">
<rect width="60" height="60" fill="white" transform="translate(19 3)"/>
</clipPath>
</defs>
</svg>
