<svg width="43" height="62" viewBox="0 0 43 62" fill="none" xmlns="http://www.w3.org/2000/svg">
  <path d="M43 26.8667H42.75C42.75 27.2958 42.3958 27.65 41.9512 27.65H38.7H38.4963L38.4551 27.8495C38.0568 29.7827 36.5224 31.2965 34.5555 31.69C31.8489 32.2315 29.2147 30.5082 28.6668 27.8495L28.6257 27.65H28.4219H25.1707C24.7262 27.65 24.3721 27.2959 24.372 26.867C24.3789 22.2593 27.8968 18.3862 32.5521 17.8741L32.8424 17.8421L32.7661 17.5602C32.7647 17.5549 32.7634 17.5496 32.7622 17.5441V13.4333V13.433C32.7546 7.01719 27.4786 1.82418 20.9759 1.81667L20.9753 1.81667C14.4726 1.82418 9.19666 7.01719 9.18902 13.433V13.4333V56.8333V57.0833H9.43902H15.7317C16.1763 57.0833 16.5305 57.4376 16.5305 57.8667V60.9667C16.5305 61.3958 16.1763 61.75 15.7317 61.75H1.04878C0.604153 61.75 0.25 61.3958 0.25 60.9667V57.8667C0.25 57.4376 0.604152 57.0833 1.04878 57.0833H7.34146H7.59146V56.8333V13.4333C7.59146 6.15581 13.5802 0.25 20.9756 0.25C28.371 0.25 34.3598 6.15581 34.3598 13.4333V17.5441C34.3586 17.5495 34.3573 17.5549 34.3559 17.5602L34.2795 17.8421L34.5698 17.8741C39.2252 18.3862 42.7431 22.2594 42.75 26.867L43 26.8667ZM43 26.8667C43 27.4373 42.5304 27.9 41.9512 27.9H38.7L34.847 17.6563C39.5017 18.2907 42.993 22.2116 43 26.8667ZM30.594 27.65H30.2381L30.3588 27.9848C30.8412 29.3232 32.1243 30.215 33.5607 30.2167H33.5613C34.9977 30.215 36.2807 29.3232 36.7632 27.9848L36.8838 27.65H36.528H30.594ZM40.828 26.0833H41.117L41.0754 25.7973C40.596 22.5066 37.973 19.9249 34.639 19.4535C30.4924 18.8671 26.643 21.7035 26.0466 25.7973L26.0049 26.0833H26.294H40.828ZM14.9329 58.9V58.65H14.6829H2.09756H1.84756V58.9V59.9333V60.1833H2.09756H14.6829H14.9329V59.9333V58.9Z" fill="white" stroke="white" stroke-width="0.5" />
</svg>
