<svg width="20" height="25" viewBox="0 0 20 25" fill="none" xmlns="http://www.w3.org/2000/svg">
<path d="M20 8.66187H0V24.0606H20V8.66187Z" fill="#7EC95C"/>
<path d="M13 15.3987C13 13.804 11.657 12.5115 10 12.5115C8.343 12.5115 7 13.804 7 15.3987C7 16.6662 7.854 17.7316 9.035 18.1195C9.024 18.1753 9 18.2272 9 18.286V20.2108C9 20.742 9.448 21.1732 10 21.1732C10.552 21.1732 11 20.742 11 20.2108V18.286C11 18.2272 10.976 18.1753 10.965 18.1195C12.146 17.7316 13 16.6662 13 15.3987Z" fill="#48AD19"/>
<path d="M5 6.73695C5 4.08355 7.243 1.92484 10 1.92484C12.757 1.92484 15 4.08355 15 6.73695V8.66179H17V6.73695C17 3.022 13.86 0 10 0C6.14 0 3 3.022 3 6.73695V8.66179H5V6.73695Z" fill="#48AD19"/>
</svg>
