<svg width="114" height="114" viewBox="0 0 114 114" fill="none" xmlns="http://www.w3.org/2000/svg">
<circle cx="57" cy="57" r="56.5" stroke="#D1D1D1"/>
<ellipse rx="16.0326" ry="21.4709" transform="matrix(0.955209 0.295931 -0.285645 0.958335 51.035 53.9637)" fill="#7EC95C"/>
<g clip-path="url(#clip0)">
<path d="M73.3481 43.0798C67.707 41.5341 62.0328 39.1274 56.9388 36.1198C56.6682 35.9601 56.3324 35.9601 56.0619 36.1198C50.821 39.2138 45.4534 41.4903 39.6521 43.0798C39.2774 43.1824 39.0176 43.523 39.0176 43.9116V52.7239C39.0176 61.7986 43.204 67.8054 46.716 71.2464C50.497 74.9512 54.9013 77 56.5004 77C58.0993 77 62.5036 74.9512 66.2845 71.2464C69.7965 67.8055 73.9827 61.7987 73.9827 52.7239V43.9116C73.9827 43.523 73.7229 43.1824 73.3481 43.0798ZM72.2578 52.7238C72.2578 61.1995 68.3531 66.8046 65.0773 70.0143C61.3592 73.6574 57.3839 75.275 56.5004 75.275C55.6169 75.275 51.6413 73.6574 47.9231 70.0143C44.6474 66.8045 40.7425 61.1995 40.7425 52.7238V44.5663C46.2902 42.9911 51.4566 40.7929 56.5005 37.8618C61.4184 40.7152 66.8427 43.0227 72.2578 44.566V52.7238Z" fill="#675A54"/>
<path d="M50.621 54.7397C50.0915 54.21 49.3872 53.9186 48.6381 53.9186C47.8891 53.9186 47.1847 54.2101 46.6549 54.7397C45.5616 55.8332 45.5616 57.6126 46.6549 58.706L51.7476 63.7985C52.2772 64.328 52.9815 64.6195 53.7306 64.6195C54.4798 64.6195 55.184 64.328 55.7138 63.7983L66.345 53.167C67.4382 52.0732 67.4382 50.2941 66.3448 49.201C65.8152 48.6714 65.1109 48.3799 64.3617 48.3799C63.6126 48.3799 62.9083 48.6714 62.3786 49.201L53.7305 57.849L50.621 54.7397ZM63.5983 50.4208C63.8021 50.217 64.0733 50.1048 64.3618 50.1048C64.6504 50.1048 64.9214 50.217 65.1253 50.4208C65.5461 50.8416 65.5461 51.5265 65.1252 51.9475L54.4941 62.5787C54.2903 62.7825 54.0191 62.8947 53.7306 62.8947C53.4422 62.8947 53.171 62.7825 52.9671 62.5787L47.8746 57.4863C47.4536 57.0654 47.4536 56.3804 47.8744 55.9596C48.0783 55.7558 48.3495 55.6434 48.6381 55.6434C48.9266 55.6434 49.1977 55.7556 49.4015 55.9594L53.1207 59.6787C53.2825 59.8404 53.5018 59.9313 53.7305 59.9313C53.9593 59.9313 54.1786 59.8405 54.3403 59.6787L63.5983 50.4208Z" fill="#675A54"/>
</g>
<defs>
<clipPath id="clip0">
<rect width="41" height="41" fill="white" transform="translate(36 36)"/>
</clipPath>
</defs>
</svg>
