<svg width="20" height="22" viewBox="0 0 20 22" fill="none" xmlns="http://www.w3.org/2000/svg">
<path d="M10.9094 10.5687H9.09125C5.78853 9.38752 3.63672 6.61711 3.63672 3.54511V0.813721H16.364V3.54511C16.364 6.61711 14.2121 9.38752 10.9094 10.5687Z" fill="#7EC95C"/>
<path d="M9.09125 10.5676H10.9094C14.2121 11.7488 16.364 14.5192 16.364 17.5912V20.3227H3.63672V17.5912C3.63672 14.5192 5.78853 11.7488 9.09125 10.5676Z" fill="#7EC95C"/>
<path d="M0.909091 1.62623H1.81818H3.63636H19.0909C19.5936 1.62623 20 1.26195 20 0.813114C20 0.364275 19.5936 0 19.0909 0H3.63636H1.81818H0.909091C0.406364 0 0 0.364275 0 0.813114C0 1.26195 0.406364 1.62623 0.909091 1.62623Z" fill="#48AD19"/>
<path d="M19.09 19.5083H2.72636C2.72364 19.5083 2.72091 19.5099 2.71727 19.5099H0.909091C0.406364 19.5099 0 19.8742 0 20.3231C0 20.7719 0.406364 21.1362 0.909091 21.1362H3.63636C3.63909 21.1362 3.64182 21.1346 3.64545 21.1346H19.09C19.5927 21.1346 19.9991 20.7703 19.9991 20.3214C19.9991 19.8726 19.5927 19.5083 19.09 19.5083Z" fill="#48AD19"/>
</svg>
