<svg width="82" height="60" viewBox="0 0 82 60" fill="none" xmlns="http://www.w3.org/2000/svg">
  <path d="M10.7 59.9C16.2 59.9 20.7 55.7 21.2 50.3H49.9C50.4 55.7 54.9 59.9 60.4 59.9C66.2 59.9 71 55.2 71 49.3C71 44.5 67.8 40.5 63.4 39.2L71.8 2.6H72.9C73.2 3 73.6 3.2 74.1 3.2H79.7C80.6 3.2 81.3 2.5 81.3 1.6C81.3 0.699998 80.6 0 79.7 0H74.1C73.6 0 73.1 0.199998 72.9 0.599998H71C70.5 0.599998 70.1 0.9 70 1.4L64.6 25.3L53.4 26.5V23.8C53.4 20.5 50.7 17.7 47.3 17.7H28.2C24.9 17.7 22.1 20.4 22.1 23.8V29.9L17.4 30.4C13.1 30.9 9.8 34.5 9.6 38.8C4.2 39.3 0 43.8 0 49.3C0.1 55.2 4.8 59.9 10.7 59.9ZM69 49.4C69 54.1 65.2 58 60.4 58C55.6 58 51.8 54.2 51.8 49.4C51.8 44.6 55.6 40.8 60.4 40.8C65.2 40.8 69 44.6 69 49.4ZM24.1 23.8C24.1 21.6 25.9 19.7 28.2 19.7H47.4C49.6 19.7 51.5 21.5 51.5 23.8V26.7L45 27.4V23.6C45 23 44.6 22.6 44 22.6C43.4 22.6 43 23 43 23.6V27.7L40.7 28V23.7C40.7 23.1 40.3 22.7 39.7 22.7C39.1 22.7 38.7 23.1 38.7 23.7V28.2L36.4 28.5V23.7C36.4 23.1 36 22.7 35.4 22.7C34.8 22.7 34.4 23.1 34.4 23.7V28.7L32.1 29V23.8C32.1 23.2 31.7 22.8 31.1 22.8C30.5 22.8 30.1 23.2 30.1 23.8V29C30.1 29.1 30.1 29.1 30.1 29.2L24.2 29.8V23.8H24.1ZM17.7 32.4L64.1 27.3L61.5 38.8C61.2 38.8 60.8 38.7 60.4 38.7C54.9 38.7 50.4 42.9 49.9 48.3H21.2C20.7 43.3 16.7 39.3 11.7 38.8C11.8 35.5 14.4 32.8 17.7 32.4ZM10.7 40.8C15.4 40.8 19.3 44.6 19.3 49.4C19.3 54.2 15.5 58 10.7 58C5.9 58 2.1 54.2 2.1 49.4C2.1 44.6 5.9 40.8 10.7 40.8Z" fill="white" />
</svg>
