<svg width="114" height="114" viewBox="0 0 114 114" fill="none" xmlns="http://www.w3.org/2000/svg">
<circle cx="57" cy="57" r="56.5" stroke="#D1D1D1"/>
<ellipse rx="16.0326" ry="18.0553" transform="matrix(0.946965 -0.321336 0.331498 0.943456 48.1676 60.1862)" fill="#7EC95C"/>
<path d="M77.0882 55.1171C77.9149 54.3114 78.2067 53.1289 77.8501 52.0297C77.4927 50.9305 76.5617 50.1459 75.4179 49.9793L65.2484 48.5017C64.8153 48.4386 64.4411 48.167 64.2476 47.7742L59.7011 38.5593C59.1907 37.524 58.1545 36.8806 56.9998 36.8806C55.846 36.8806 54.8098 37.524 54.2993 38.5593L49.752 47.7742C49.5586 48.167 49.1835 48.4386 48.7504 48.5017L38.5809 49.9802C37.438 50.1459 36.507 50.9305 36.1495 52.0297C35.7929 53.1289 36.0848 54.3114 36.9115 55.1171L44.2695 62.2892C44.5832 62.5953 44.727 63.036 44.653 63.4666L42.9163 73.5949C42.7212 74.7328 43.1795 75.8605 44.1139 76.5401C45.0474 77.2205 46.2627 77.3088 47.2862 76.7697L56.3808 71.9877C56.7685 71.7842 57.2311 71.7842 57.6188 71.9877L66.7143 76.7697C67.1584 77.0035 67.6394 77.1187 68.118 77.1187C68.7395 77.1187 69.3585 76.9244 69.8866 76.5401C70.821 75.8605 71.2793 74.7328 71.0842 73.5949L69.3467 63.4674C69.2727 63.036 69.4165 62.5962 69.7302 62.29L77.0882 55.1171ZM67.6899 63.7517L69.4266 73.8791C69.514 74.3888 69.3164 74.8757 68.8976 75.1802C68.4779 75.4838 67.9557 75.5208 67.4973 75.2819L58.4018 70.4991C57.9636 70.2695 57.4809 70.1535 56.9998 70.1535C56.5188 70.1535 56.0369 70.2695 55.5979 70.5L46.504 75.2819C46.044 75.5208 45.5217 75.4838 45.1029 75.1802C44.6841 74.8757 44.4873 74.3896 44.5739 73.8791L46.3106 63.7517C46.478 62.7744 46.1542 61.777 45.4444 61.0857L38.0855 53.9127C37.7146 53.5511 37.5885 53.0414 37.7491 52.5495C37.9089 52.0566 38.3101 51.7185 38.8223 51.6437L48.9909 50.166C49.9724 50.0239 50.8209 49.4083 51.2591 48.5185L55.8064 39.3036C56.0352 38.8393 56.4818 38.5626 56.999 38.5626C57.517 38.5626 57.9628 38.8393 58.1924 39.3036L62.7397 48.5185C63.1779 49.4083 64.0256 50.0239 65.0071 50.166L75.1766 51.6437C75.6887 51.7185 76.0899 52.0566 76.2497 52.5495C76.4095 53.0414 76.2842 53.5511 75.9133 53.9127L68.5553 61.0849C67.8455 61.777 67.5217 62.7736 67.6899 63.7517Z" fill="#675A54"/>
</svg>
