<svg width="114" height="114" viewBox="0 0 114 114" fill="none" xmlns="http://www.w3.org/2000/svg">
<circle cx="57" cy="57" r="56.5" stroke="#D1D1D1"/>
<ellipse cx="49.1391" cy="57.4094" rx="14.4988" ry="24.4825" transform="rotate(-11.8925 49.1391 57.4094)" fill="#7EC95C"/>
<g clip-path="url(#clip0)">
<path fill-rule="evenodd" clip-rule="evenodd" d="M71.783 44.1876C75.054 47.4586 77.1827 51.5689 77.9529 56.086C78.0654 56.7177 77.6327 57.3234 77.001 57.4186C76.994 57.4194 76.9871 57.4203 76.9803 57.4212C76.9195 57.4289 76.8642 57.4359 76.802 57.4359C76.2395 57.4359 75.7463 57.0378 75.6511 56.4667C74.9675 52.4343 73.0637 48.7566 70.1389 45.8318C67.2141 42.9156 63.5364 41.0032 59.504 40.3196C58.8636 40.2071 58.4396 39.61 58.5434 38.9697C58.6559 38.338 59.253 37.9053 59.8847 38.0178C64.4018 38.788 68.5121 40.9167 71.783 44.1876ZM56.095 75.5525L56.1299 75.5721L56.2549 75.6421L56.3598 75.7004C56.4093 75.7278 56.4589 75.7551 56.5085 75.7823C56.6017 75.8334 56.6952 75.8842 56.789 75.9346L56.8099 75.9459L56.8115 75.9467C57.3188 76.2192 57.8327 76.4813 58.3531 76.7329L58.359 76.7357L58.369 76.7404C59.1183 77.0952 59.9615 77.474 60.8798 77.8186C61.7378 78.1404 62.6614 78.4324 63.6351 78.6468L63.6451 78.649L63.7158 78.6644L63.752 78.6721C64.4662 78.8242 65.2069 78.9339 65.968 78.9827L65.9692 78.9828L65.9754 78.9831C66.1368 78.9908 66.3048 78.9983 66.4612 78.9998L66.4785 78.9999L66.5132 79L66.5218 79C68.4069 78.9981 70.0069 78.3568 71.2856 77.0834C71.3498 77.0194 71.4133 76.9538 71.4759 76.8866L71.4981 76.8627L71.5061 76.854C71.5105 76.8454 71.5169 76.8389 71.5234 76.8324C71.5299 76.8259 71.5364 76.8194 71.5407 76.8108L71.5481 76.8019C71.8407 76.4484 72.1623 76.1165 72.5013 75.7826C72.6429 75.6431 72.7875 75.5033 72.9343 75.3614L73.0508 75.2487L73.0551 75.2445L73.0707 75.2296C73.4279 74.8887 73.7929 74.5319 74.1504 74.1592L74.18 74.1282L74.1814 74.1268L74.2015 74.1057L74.21 74.0968L74.2138 74.0928L74.218 74.0883C74.2911 74.0108 74.3611 73.9323 74.428 73.8527C75.1233 73.0261 75.4867 72.0906 75.4867 71.1342C75.4867 70.0612 75.028 69.0314 74.154 68.1661L74.1411 68.1531L74.1331 68.145L72.5013 66.5073L69.4408 63.4357L69.4034 63.3981L69.3828 63.3768L69.3821 63.3761L69.365 63.3586C68.775 62.7567 68.1013 62.3537 67.3824 62.1703C67.2871 62.1459 67.1909 62.1255 67.0941 62.1089L67.0553 62.1025L67.0507 62.1018C66.9589 62.0872 66.8664 62.0762 66.7734 62.0687C66.69 62.0619 66.6061 62.0581 66.5218 62.0571L66.5132 62.057L66.4785 62.0568L66.4612 62.0569C66.2756 62.0577 66.0913 62.0726 65.909 62.1011C65.7323 62.1287 65.5575 62.1692 65.3849 62.2224L65.3641 62.2289L65.3331 62.2388L65.2993 62.2499C65.2662 62.2609 65.2333 62.2724 65.2004 62.2844L65.177 62.293C64.5977 62.508 64.0469 62.8679 63.5442 63.3645L63.5191 63.3894L63.5148 63.3938L63.5104 63.3981L63.4498 63.4586L63.2754 63.6324L63.2679 63.6399L63.2365 63.6711L63.114 63.7933L62.9181 63.9885L62.8518 64.0546L62.7781 64.1281L62.6128 64.2929L62.6066 64.2991L62.5477 64.3578L62.5305 64.3749L62.4991 64.4062L62.0932 64.8108L61.5179 65.3843L61.2505 65.6509L60.8798 66.0203L60.7847 66.1152C60.636 66.0352 60.4873 65.9589 60.3411 65.8839C60.2661 65.8454 60.1917 65.8072 60.1184 65.7691L60.108 65.7639L60.0028 65.7113L59.9449 65.6822C59.9284 65.6739 59.9121 65.6656 59.8957 65.6574C59.871 65.6449 59.8465 65.6324 59.8221 65.6199C59.6208 65.5172 59.4314 65.4158 59.2617 65.3105L59.249 65.3024L59.2466 65.3009C59.1282 65.2256 59.0102 65.1492 58.8928 65.0717C58.8341 65.033 58.7755 64.994 58.7171 64.9548C58.547 64.8406 58.378 64.7242 58.21 64.6054C57.8752 64.3689 57.5443 64.1232 57.2169 63.868C57.15 63.8159 57.0833 63.7633 57.0166 63.7104C56.9023 63.6195 56.7885 63.5275 56.675 63.4343L56.6744 63.4338L56.6698 63.43C56.2421 63.0785 55.8202 62.7101 55.4033 62.3241L55.3279 62.254C55.1968 62.1317 55.0662 62.0077 54.936 61.8819C54.4857 61.4467 54.0411 60.9903 53.6011 60.5118C53.3126 60.198 53.0261 59.8747 52.7414 59.5416L52.7226 59.5197L52.7168 59.5128L52.7002 59.4934C52.5142 59.2751 52.329 59.0527 52.1444 58.8259L52.14 58.8205L52.1305 58.8085C52.0973 58.7665 52.0645 58.7248 52.032 58.6832L51.9802 58.6168L51.9727 58.6071C51.3548 57.8116 50.8582 57.0876 50.4505 56.3866C50.3886 56.2802 50.3288 56.1743 50.2709 56.0687C50.2467 56.0246 50.2228 55.9806 50.1993 55.9366C50.1796 55.8998 50.1601 55.863 50.1409 55.8263L50.1315 55.8082L50.1035 55.7542C50.0816 55.7118 50.06 55.6694 50.0387 55.6271C49.9561 55.4627 49.8779 55.2986 49.8036 55.1342L49.8218 55.1175C49.9199 55.0276 50.0171 54.9371 50.1134 54.8463L50.1722 54.7906L50.1775 54.7856L50.254 54.7129C50.334 54.6364 50.4135 54.5598 50.4924 54.483C50.8812 54.1049 51.2566 53.7238 51.6253 53.3497L51.7738 53.1991L51.8112 53.1612L51.8219 53.1504C51.9395 53.0327 52.057 52.9131 52.1746 52.7934L52.3096 52.6562L52.3935 52.5711C52.4417 52.5224 52.4899 52.4739 52.538 52.4257L52.5424 52.4213L52.5467 52.417L52.564 52.3995L52.5939 52.369L52.6109 52.3515L52.64 52.3211C53.2837 51.6445 53.681 50.8979 53.8317 50.1349C53.8355 50.1157 53.8392 50.0966 53.8426 50.0774L53.8505 50.0324L53.8513 50.0275L53.8574 49.9898C53.8956 49.7455 53.9087 49.4998 53.8966 49.2546L53.8961 49.2451L53.896 49.2439L53.8941 49.2096C53.8799 48.9807 53.8438 48.7522 53.7858 48.5257C53.6059 47.8232 53.2153 47.1388 52.6139 46.5149C52.5904 46.4905 52.5665 46.4661 52.5424 46.4419L52.538 46.4376L50.2054 44.1049L50.18 44.0795L50.1757 44.0752C49.912 43.8115 49.6399 43.5394 49.3841 43.2672L49.3837 43.2667L49.3709 43.2531C48.8683 42.7338 48.3414 42.1982 47.798 41.6935L47.7711 41.6686L47.7441 41.6436L47.7403 41.6398C46.9063 40.8161 45.9103 40.3764 44.8625 40.3716L44.8452 40.3716C43.8041 40.3716 42.7967 40.8008 41.9391 41.6094L41.9031 41.6436L41.8858 41.6609L41.8341 41.7131L41.8298 41.7174L41.2514 42.3009L41.1018 42.4518L41.0302 42.524L40.9871 42.5675L39.5946 43.9723L39.4507 44.1175L38.9609 44.6116L38.948 44.6247L38.9437 44.629L38.9178 44.655C37.9192 45.6638 37.3128 46.872 37.1116 48.2603C37.0932 48.3866 37.0783 48.5143 37.0667 48.6436L37.066 48.6517L37.0659 48.6528C36.9652 49.8778 37.0882 51.0621 37.3068 52.1328L37.3157 52.1759L37.3165 52.1798C37.3514 52.3482 37.3887 52.5137 37.4277 52.676C37.4369 52.7141 37.4461 52.7519 37.4555 52.7896C37.5689 53.2468 37.6961 53.6781 37.8255 54.0769C37.8547 54.1667 37.884 54.2548 37.9132 54.3413L37.9215 54.3658L37.9228 54.3695C38.0077 54.6194 38.0923 54.8547 38.1735 55.0736L38.1735 55.0736L38.176 55.0802C38.2384 55.2486 38.3023 55.4165 38.3676 55.584C38.3955 55.6556 38.4237 55.7272 38.4522 55.7987L38.4546 55.8049C38.7706 56.5981 39.1186 57.3805 39.5017 58.1569L39.5613 58.2771L39.5984 58.3513C39.6853 58.5245 39.774 58.6974 39.8644 58.8701C39.892 58.9228 39.9197 58.9754 39.9476 59.028L39.9506 59.0336C40.0293 59.1818 40.1093 59.3299 40.1906 59.4778C40.2379 59.5638 40.2857 59.6497 40.3339 59.7357C40.8504 60.6562 41.4202 61.5731 42.0487 62.4951C42.6587 63.3899 43.3239 64.2893 44.0495 65.2012L44.0592 65.2135L44.1304 65.3027L44.1481 65.3249C44.3105 65.5277 44.4759 65.7312 44.6443 65.9354L44.6522 65.9449C44.699 66.0016 44.746 66.0584 44.7933 66.1152L44.8036 66.1275L44.8107 66.136C47.1043 68.8713 49.6795 71.2583 52.5096 73.2742C52.7892 73.4734 53.0714 73.669 53.356 73.8609C53.4647 73.9342 53.5738 74.007 53.6832 74.0793L53.6896 74.0835L53.6916 74.0848L53.7796 74.1427C54.2717 74.4655 54.7709 74.7776 55.2773 75.0789C55.3218 75.1053 55.3663 75.1317 55.4109 75.158L55.4209 75.1639C55.4595 75.1866 55.4981 75.2093 55.5367 75.2319C55.5583 75.2445 55.5799 75.2571 55.6015 75.2697C55.6659 75.3072 55.7304 75.3445 55.795 75.3817C55.8948 75.439 55.9948 75.496 56.095 75.5525ZM56.4665 73.0727C56.5879 73.145 56.7096 73.2166 56.8317 73.2876L56.901 73.3277C57.0331 73.4041 57.1656 73.4797 57.2987 73.5545L57.4035 73.6131C57.5848 73.7143 57.7671 73.8141 57.9503 73.9124C58.0584 73.9705 58.1669 74.028 58.2757 74.0851C58.3551 74.1267 58.4347 74.1681 58.5144 74.2092L58.5372 74.2209L58.5398 74.2223C58.8083 74.3604 59.0786 74.4955 59.3508 74.6275L59.367 74.6353L59.3742 74.6388C59.8384 74.8608 60.3427 75.0927 60.8798 75.3173C62.2913 75.9074 63.9298 76.4473 65.664 76.6253L65.6684 76.6257L65.7287 76.6317L65.7684 76.6355C65.8715 76.6452 65.9749 76.6536 66.0786 76.6607L66.1168 76.6632L66.1238 76.6636C66.2336 76.671 66.3495 76.6721 66.4612 76.6723L66.4785 76.6723L66.5132 76.6723H66.5218C67.632 76.6723 68.5256 76.3738 69.2941 75.748C69.3094 75.7356 69.3246 75.723 69.3398 75.7103C69.4417 75.625 69.5414 75.534 69.6391 75.437C69.6747 75.4016 69.71 75.3655 69.7451 75.3286L69.7755 75.2964L69.793 75.2758L69.85 75.2094C70.362 74.6159 70.9035 74.083 71.4373 73.5737L71.4456 73.5658L71.4501 73.5613C71.5152 73.4978 71.5794 73.4353 71.6429 73.3736L71.6431 73.3734C71.9389 73.0858 72.2195 72.813 72.4944 72.5175L72.499 72.5125L72.5013 72.51L72.5313 72.4784L72.5545 72.4535L72.5641 72.4431L72.5683 72.4386C72.6319 72.3689 72.6904 72.2992 72.7438 72.2297C73.0256 71.8624 73.1653 71.4969 73.1621 71.1342C73.1583 70.6922 72.9425 70.2544 72.5138 69.8227L72.5026 69.8115L72.5013 69.8102L72.4926 69.8016L67.9229 65.2319L67.7432 65.0522L67.7246 65.0336L67.7128 65.0217L67.7073 65.0163C67.5234 64.8145 67.2581 64.5924 66.9365 64.4728C66.9258 64.4688 66.9151 64.465 66.9044 64.4612L66.8995 64.4595C66.8234 64.4335 66.7442 64.4132 66.6624 64.4004C66.6164 64.3931 66.5695 64.3883 66.5218 64.386L66.5132 64.3856C66.5017 64.3852 66.4901 64.3848 66.4785 64.3847L66.4612 64.3846C65.9521 64.3846 65.5108 64.6941 65.2151 64.9746C65.1957 64.993 65.177 65.0112 65.1589 65.0292L65.1563 65.0318L65.1546 65.0336L65.1503 65.0379L65.0897 65.0985L64.9472 65.241L64.9406 65.2476L64.9141 65.2741L64.8152 65.373L64.5037 65.6845L64.4191 65.7691L64.215 65.9732L64.2091 65.9791L64.1454 66.0427L64.1212 66.067L62.9632 67.225L62.9359 67.2523L62.8802 67.308L62.7651 67.423L62.4262 67.762L62.1952 67.993C62.1678 68.0203 62.13 68.0581 62.082 68.1016C62.0696 68.1128 62.0565 68.1244 62.0427 68.1362C61.986 68.1852 61.9178 68.2391 61.8383 68.2921C61.7828 68.3292 61.7218 68.3658 61.6555 68.4C61.5939 68.4318 61.5276 68.4614 61.4568 68.4875C61.4119 68.504 61.3652 68.519 61.3166 68.5322L61.3146 68.5327C61.1829 68.5683 61.0379 68.5901 60.8798 68.5901C60.5943 68.5901 60.3174 68.5209 60.0232 68.3738C60.0059 68.3651 59.9885 68.3543 59.9712 68.3435C59.9539 68.3327 59.9366 68.3218 59.9193 68.3132C59.8424 68.2655 59.7615 68.2185 59.6772 68.1719C59.4895 68.0681 59.2854 67.9659 59.073 67.8597L59.0627 67.8546L59.0626 67.8546L59.0398 67.8432C58.7109 67.6787 58.3669 67.5057 58.03 67.2948L58.0095 67.2819L57.9983 67.2748C57.4167 66.907 56.8464 66.5156 56.2864 66.0997C55.9243 65.8309 55.5665 65.5518 55.2127 65.2621L55.2093 65.2593L55.1694 65.2266C54.9009 65.006 54.6347 64.7792 54.3706 64.5463C54.3177 64.4997 54.2649 64.4528 54.2123 64.4057C53.2392 63.5355 52.2947 62.5802 51.3717 61.5335C51.2274 61.3699 51.0836 61.204 50.9403 61.0359L50.9235 61.0162L50.923 61.0156L50.9062 60.9958C50.7118 60.7671 50.5183 60.5342 50.3257 60.2971L50.3141 60.2829L50.3055 60.2742L50.3043 60.2728C50.1243 60.0442 49.9528 59.8207 49.7892 59.6013C48.8603 58.3558 48.1866 57.2429 47.6746 56.0961C47.618 55.9692 47.5633 55.8419 47.5104 55.7139L47.4845 55.6361C47.3287 55.1428 47.1903 54.4159 47.9345 53.6717C47.94 53.6607 47.949 53.6532 47.9593 53.6447L47.9597 53.6444L47.9641 53.6408C47.9664 53.6389 47.9687 53.6369 47.9711 53.6347C47.9733 53.6328 47.9755 53.6307 47.9777 53.6285L48.0012 53.6074C48.0568 53.5575 48.112 53.5075 48.1669 53.4574L48.223 53.4061C48.8818 52.802 49.5009 52.1813 50.1473 51.5195L50.1497 51.5171L50.1585 51.5086C50.3224 51.35 50.4827 51.1879 50.6443 51.0245L50.7127 50.9552L50.7785 50.8888C50.8154 50.8516 50.8524 50.8144 50.8896 50.7772L50.8939 50.7729L50.8982 50.7686L50.9181 50.7485L50.9454 50.7205L50.9623 50.7028L50.9841 50.6797C51.1371 50.5164 51.2607 50.3552 51.355 50.1952L51.361 50.1848L51.3618 50.1836C51.3687 50.1716 51.3755 50.1597 51.3821 50.1478C51.4229 50.0741 51.4574 50.0007 51.4857 49.9275C51.4921 49.9108 51.4982 49.8942 51.504 49.8775C51.5083 49.8652 51.5124 49.8529 51.5164 49.8405L51.5177 49.8363C51.7005 49.2581 51.4925 48.689 50.8939 48.0904L50.8896 48.086L50.7644 47.9608L48.5315 45.728L48.5273 45.7236C48.3914 45.5835 48.2555 45.4455 48.1207 45.3086L48.1206 45.3085L48.1205 45.3083C47.982 45.1677 47.8447 45.0282 47.7095 44.8886L47.6957 44.8744L47.6699 44.8478C47.1613 44.3229 46.6756 43.8298 46.1662 43.353L46.1519 43.3397L46.1259 43.3137L46.1084 43.2963C45.8306 43.0233 45.3963 42.708 44.8625 42.708L44.8452 42.7081C44.4157 42.7136 43.9783 42.9234 43.5651 43.3057L43.5548 43.3153L43.5472 43.3224L43.5306 43.339L43.4953 43.3743L43.491 43.3786L42.8809 43.9887L42.7598 44.1098L42.699 44.1706L42.6641 44.2055L41.1723 45.6973L41.0113 45.8583L40.6094 46.2602L40.5994 46.2702L40.5964 46.2732L40.5921 46.2775L40.5663 46.3036C39.8673 47.0151 39.4876 47.845 39.4023 48.8432L39.4021 48.8448L39.401 48.8592C39.3869 49.0354 39.378 49.2127 39.3745 49.3918C39.3702 49.6096 39.3739 49.83 39.3857 50.0539L39.3876 50.0872L39.3885 50.1031C39.3968 50.2472 39.4086 50.3927 39.4237 50.54C39.4273 50.5749 39.4311 50.6099 39.4351 50.645C39.494 51.1648 39.5953 51.7065 39.7415 52.2808C39.761 52.3576 39.7813 52.4349 39.8025 52.5129L39.8093 52.538L39.8102 52.5411C39.9202 52.9439 40.0517 53.3629 40.2054 53.8018C40.2263 53.8613 40.2476 53.9213 40.2693 53.9816L40.2716 53.9879C40.3038 54.0774 40.3369 54.1677 40.3709 54.2588L40.371 54.259L40.3715 54.2602C40.7511 55.286 41.187 56.2914 41.6868 57.2888L41.6897 57.2946C41.7144 57.3439 41.7393 57.3932 41.7643 57.4424L41.8081 57.5282L41.846 57.6021C41.9096 57.7255 41.9743 57.8489 42.0399 57.9721C42.1354 58.1515 42.233 58.3307 42.3328 58.5098C42.6671 59.1098 43.0259 59.7087 43.4108 60.3094C43.8585 61.0079 44.3415 61.7088 44.8625 62.4164C44.9337 62.5131 45.0056 62.6099 45.0782 62.7068C45.3383 63.0541 45.6077 63.4031 45.8865 63.7544L45.8931 63.7627L45.9458 63.829L45.9617 63.8489C46.0746 63.9904 46.189 64.1323 46.3051 64.2747L46.3128 64.2842C46.4025 64.3942 46.4932 64.5044 46.5848 64.6149L46.5898 64.6209L46.6018 64.6355C48.4194 66.8052 50.425 68.742 52.6015 70.4336C52.7878 70.5784 52.9754 70.7214 53.1642 70.8626C53.7423 71.2949 54.332 71.7103 54.933 72.1085L54.9389 72.1125L54.9407 72.1136L55.0104 72.1597C55.1871 72.2761 55.3647 72.391 55.5432 72.5045C55.8117 72.675 56.0823 72.8422 56.3551 73.0061L56.4565 73.0668L56.4665 73.0727ZM59.1578 47.753C61.425 48.1337 63.4845 49.2067 65.1286 50.8509C66.7728 52.495 67.8371 54.5545 68.2265 56.8217C68.3217 57.3928 68.815 57.7908 69.3774 57.7908C69.4397 57.7908 69.4949 57.7838 69.5557 57.7761L69.5765 57.7735C70.2168 57.6697 70.6408 57.064 70.537 56.4236C70.0697 53.6805 68.7717 51.1797 66.7901 49.1981C64.8085 47.2165 62.3077 45.9185 59.5646 45.4512C58.9242 45.3473 58.3271 45.7714 58.2146 46.4031C58.1021 47.0347 58.5175 47.6491 59.1578 47.753Z" fill="#675A54"/>
</g>
<defs>
<clipPath id="clip0">
<rect width="41" height="41" fill="white" transform="translate(37 38)"/>
</clipPath>
</defs>
</svg>
