<svg width="62" height="63" viewBox="0 0 62 63" fill="none" xmlns="http://www.w3.org/2000/svg">
  <path d="M15.6125 25.1603C15.9541 25.1603 16.2806 25.2959 16.5218 25.537L37.0142 46.0301C37.5165 46.5324 37.5165 47.3462 37.0142 47.8485C32.3539 52.5095 25.4255 57.0863 18.9329 59.7914C11.2486 62.9925 5.38013 63.1187 2.40761 60.1443C-4.06363 53.6724 5.25958 34.9802 14.7033 25.537C14.9445 25.2959 15.271 25.1603 15.6125 25.1603ZM34.2715 46.9243L15.6264 28.2791C6.78539 37.6915 -0.34138 53.7578 4.22603 58.3258C6.38102 60.4821 11.3804 60.1518 17.9433 57.4179C23.7289 55.0067 29.8699 51.0484 34.2715 46.9243Z" fill="white" />
  <path d="M52.4998 8.76565C52.8289 8.76565 53.1579 8.89124 53.4091 9.1424C53.9114 9.64473 53.9114 10.4585 53.4091 10.9608L26.7681 37.6018C26.2658 38.1041 25.452 38.1041 24.9497 37.6018C24.4474 37.0994 24.4474 36.2857 24.9497 35.7833L51.5906 9.1424C51.8418 8.89124 52.1708 8.76565 52.4998 8.76565Z" fill="white" />
  <path d="M52.4995 0.569672C52.8285 0.569672 53.1576 0.695254 53.4087 0.946418L61.6055 9.14315C62.1078 9.64485 62.1078 10.4586 61.6067 10.9609L61.1458 11.4225C58.6367 13.9291 54.5578 13.9297 52.0512 11.4231L51.1294 10.5007C48.6228 7.99345 48.6228 3.91455 51.1294 1.4073L51.5903 0.946418C51.8415 0.695254 52.1705 0.569672 52.4995 0.569672ZM58.8414 10.0159L52.5359 3.7111C51.4597 5.21746 51.5966 7.33037 52.9478 8.68226L53.8696 9.60466C55.2221 10.9553 57.3357 11.0922 58.8414 10.0159Z" fill="white" />
</svg>
