<svg width="114" height="114" viewBox="0 0 114 114" fill="none" xmlns="http://www.w3.org/2000/svg">
<circle cx="57" cy="57" r="56.5" stroke="#D1D1D1"/>
<g clip-path="url(#clip0)">
<ellipse rx="16.0326" ry="18.0553" transform="matrix(0.946965 -0.321336 0.331498 0.943456 53.1676 58.1862)" fill="#7EC95C"/>
<path d="M80 59.109C80 57.9232 79.4506 56.8637 78.5934 56.1703C79.6856 55.2882 80.1639 53.923 79.9487 52.6014C79.6565 50.8052 77.9863 49.4508 76.0636 49.4508C75.1368 49.4508 69.0489 49.4508 68.0634 49.4508L68.3123 48.7036C69.7357 44.4345 68.4139 39.8728 65.281 37.204C63.5312 35.6945 60.5459 36.1978 59.6288 38.6953C59.5649 38.8693 59.5605 39.0596 59.6161 39.2366C60.3137 41.4556 60.3236 42.9477 59.6502 44.3866C58.9519 45.8789 57.4497 47.4458 54.6271 49.6259C53.9496 50.1491 53.3574 50.469 52.7847 50.7783C51.8825 51.2655 51.026 51.7281 50.1404 52.8101H47.0781V51.9703C47.0781 51.5064 46.7021 51.1304 46.2383 51.1304H37.8398C37.376 51.1304 37 51.5064 37 51.9703V73.8062C37 74.2701 37.376 74.646 37.8398 74.646H46.2383C46.7021 74.646 47.0781 74.2701 47.0781 73.8062V71.2867H51.7887C54.2304 73.4556 57.3643 74.646 60.6517 74.646C62.5901 74.646 69.0494 74.646 71.1816 74.646C73.2707 74.646 74.9609 72.956 74.9609 70.8668C74.9609 70.0904 74.7254 69.3681 74.3223 68.7671H74.541C76.63 68.7671 78.3203 67.0771 78.3203 64.9878C78.3203 64.1107 78.0191 63.3031 77.5159 62.6611C78.951 62.1389 80 60.7572 80 59.109ZM45.3984 72.9664H38.6797V52.8102H45.3984V72.9664ZM76.2207 61.2086C75.4039 61.2086 69.0196 61.2086 68.1582 61.2086C67.6944 61.2086 67.3184 61.5846 67.3184 62.0485C67.3184 62.5123 67.6944 62.8883 68.1582 62.8883H74.541C75.6987 62.8883 76.6406 63.8302 76.6406 64.9879C76.6406 66.1485 75.7019 67.0875 74.541 67.0875C72.1853 67.0875 70.0818 67.0875 68.1582 67.0875C67.6944 67.0875 67.3184 67.4635 67.3184 67.9274C67.3184 68.3912 67.6944 68.7672 68.1582 68.7672H71.1816C72.3394 68.7672 73.2812 69.7091 73.2812 70.8668C73.2812 72.0274 72.3426 72.9664 71.1816 72.9664C68.9837 72.9664 62.4533 72.9664 60.6517 72.9664C57.679 72.9664 54.8505 71.8537 52.6871 69.8332C52.5316 69.6879 52.3266 69.6071 52.1138 69.6071H47.0781V54.4899H50.5517C50.8187 54.4899 51.0697 54.363 51.228 54.148C51.9856 53.119 52.6556 52.7571 53.583 52.2563C54.1855 51.931 54.8683 51.5622 55.6541 50.9554C61.4042 46.5139 62.72 43.7927 61.3112 39.0363C61.8681 37.9655 63.2571 37.6767 64.2436 38.5287C66.9204 40.8686 67.8921 44.6541 66.719 48.1727L66.2931 49.451H65.2188C64.755 49.451 64.3789 49.827 64.3789 50.2908C64.3789 50.7547 64.755 51.1307 65.2188 51.1307C66.5085 51.1307 74.7387 51.1307 76.0637 51.1307C77.1719 51.1307 78.1294 51.879 78.2909 52.8714C78.5098 54.2151 77.4772 55.3299 76.2208 55.3299C75.3604 55.3299 68.9777 55.3299 68.1583 55.3299C67.6945 55.3299 67.3184 55.7059 67.3184 56.1697C67.3184 56.6336 67.6945 57.0096 68.1583 57.0096C68.9751 57.0096 75.3594 57.0096 76.2208 57.0096C77.3785 57.0096 78.3204 57.9515 78.3204 59.1092C78.3203 60.2696 77.3816 61.2086 76.2207 61.2086Z" fill="#675A54"/>
</g>
<defs>
<clipPath id="clip0">
<rect width="43" height="43" fill="white" transform="translate(37 34)"/>
</clipPath>
</defs>
</svg>
