<svg width="57" height="59" viewBox="0 0 57 59" fill="none" xmlns="http://www.w3.org/2000/svg">
  <ellipse cx="25.8569" cy="32.6879" rx="19.24" ry="19.1262" transform="rotate(27.2158 25.8569 32.6879)" fill="#7EC95C" />
  <path d="M56.635 11.4903C56.404 11.3036 56.1003 11.2309 55.8095 11.2948C54.2852 11.626 52.703 11.793 51.104 11.793C42.4342 11.793 35.38 6.94315 35.38 0.982752C35.38 0.440273 34.9397 0 34.3972 0C33.8548 0 33.4145 0.440273 33.4145 0.982752C33.4145 6.94315 26.3603 11.793 17.6905 11.793C16.0925 11.793 14.5083 11.626 12.985 11.2948C12.6951 11.2329 12.3915 11.3036 12.1595 11.4903C11.9286 11.6771 11.7939 11.9581 11.7939 12.2559V30.4653C11.7939 39.602 32.9899 52.3895 33.8921 52.9291C34.0484 53.0224 34.2223 53.0686 34.3972 53.0686C34.5722 53.0686 34.7461 53.0224 34.9024 52.9291C35.8045 52.3895 57.0005 39.602 57.0005 30.4653V12.2559C57.0005 11.9581 56.8659 11.6771 56.635 11.4903ZM55.035 30.4653C55.035 36.9466 40.5994 47.1456 34.3972 50.937C28.1951 47.1466 13.7594 36.9505 13.7594 30.4653V13.4421C15.0469 13.6524 16.3637 13.7585 17.6905 13.7585C25.407 13.7585 31.9856 10.1715 34.3972 5.18402C36.8089 10.1715 43.3865 13.7585 51.104 13.7585C52.4308 13.7585 53.7476 13.6524 55.035 13.4421V30.4653Z" fill="#675A54" />
  <path d="M33.2872 24.4815C32.3696 25.3922 31.187 25.8475 29.7393 25.8475C28.2916 25.8475 27.109 25.3922 26.1914 24.4815C25.2943 23.5509 24.8457 22.3928 24.8457 21.0069C24.8457 19.6012 25.3045 18.4331 26.222 17.5026C27.1396 16.5523 28.312 16.0771 29.7393 16.0771C31.187 16.0771 32.3696 16.5523 33.2872 17.5026C34.2251 18.4331 34.6941 19.6012 34.6941 21.0069C34.6941 22.3928 34.2251 23.5509 33.2872 24.4815ZM29.464 36.1821H27.8124L40.8417 16.3741H42.5238L29.464 36.1821ZM43.9307 35.1724C43.0132 36.0832 41.8306 36.5385 40.3829 36.5385C38.9352 36.5385 37.7526 36.0832 36.835 35.1724C35.9379 34.2419 35.4893 33.0837 35.4893 31.6979C35.4893 30.2922 35.9481 29.1241 36.8656 28.1936C37.7832 27.2433 38.9556 26.7681 40.3829 26.7681C41.8306 26.7681 43.0132 27.2433 43.9307 28.1936C44.8483 29.1241 45.3071 30.2922 45.3071 31.6979C45.3071 33.0837 44.8483 34.2419 43.9307 35.1724ZM27.5372 23.4124C28.1081 24.0459 28.8421 24.3627 29.7393 24.3627C30.6365 24.3627 31.3807 24.0459 31.972 23.4124C32.5633 22.759 32.859 21.9572 32.859 21.0069C32.859 20.017 32.5633 19.2053 31.972 18.5717C31.4011 17.9184 30.6569 17.5917 29.7393 17.5917C28.8421 17.5917 28.1081 17.9184 27.5372 18.5717C26.9663 19.2053 26.6808 20.017 26.6808 21.0069C26.6808 21.9572 26.9663 22.759 27.5372 23.4124ZM38.1502 34.1033C38.7415 34.7369 39.4857 35.0537 40.3829 35.0537C41.28 35.0537 42.0243 34.7369 42.6156 34.1033C43.2069 33.45 43.5026 32.6482 43.5026 31.6979C43.5026 30.708 43.2069 29.8962 42.6156 29.2627C42.0447 28.6094 41.3004 28.2827 40.3829 28.2827C39.4653 28.2827 38.7211 28.6094 38.1502 29.2627C37.5793 29.8962 37.2938 30.708 37.2938 31.6979C37.2938 32.6482 37.5793 33.45 38.1502 34.1033Z" fill="#675A54" />
</svg>
