<svg width="50" height="53" viewBox="0 0 50 53" fill="none" xmlns="http://www.w3.org/2000/svg">
<circle cx="20.5" cy="20.5" r="20.5" fill="#69B246"/>
<path d="M49.0098 21.1373C49.549 21.1373 49.9902 20.6961 50 20.1569V13.9902C50 13.4412 49.5588 13 49.0098 13H42.8431C42.3039 13 41.8627 13.4412 41.8627 13.9902V16.1373H18.1373V13.9902C18.1373 13.451 17.6961 13.0098 17.1569 13H10.9902C10.451 13 10.0098 13.4412 10 13.9902V20.1569C10 20.6961 10.4412 21.1373 10.9902 21.1373H13.1373V44.8627H10.9902C10.451 44.8627 10.0098 45.3039 10 45.8431V52.0098C10 52.549 10.4412 52.9902 10.9902 53H17.1569C17.6961 53 18.1373 52.5588 18.1373 52.0098V49.8627H41.8627V52.0098C41.8627 52.549 42.3039 52.9902 42.8431 53H49.0098C49.549 53 49.9902 52.5588 50 52.0098V45.8431C50 45.3039 49.5588 44.8627 49.0098 44.8627H46.8627V21.1373H49.0098ZM11.9608 19.1765V14.9608H16.1765V19.1765H11.9608ZM16.1765 51.0392H11.9608V46.8235H16.1765V51.0392ZM41.8627 45.8431V47.902H18.1373V45.8431C18.1373 45.3039 17.6961 44.8627 17.1569 44.8627H15.098V21.1373H17.1569C17.6961 21.1373 18.1373 20.6961 18.1373 20.1569V18.098H41.8627V20.1569C41.8627 20.6961 42.3039 21.1373 42.8431 21.1373H44.902V44.8627H42.8431C42.3039 44.8627 41.8627 45.3039 41.8627 45.8431ZM48.0392 46.8235V51.0392H43.8235V46.8235H48.0392ZM43.8235 19.1765V14.9608H48.0392V19.1765H43.8235Z" fill="#675A54"/>
</svg>
