<svg width="65" height="67" viewBox="0 0 65 67" fill="none" xmlns="http://www.w3.org/2000/svg">
  <ellipse cx="25.8571" cy="40.6879" rx="19.24" ry="19.1262" transform="rotate(27.2158 25.8571 40.6879)" fill="#7EC95C" />
  <g clip-path="url(#clip0)">
    <path fill-rule="evenodd" clip-rule="evenodd" d="M37.8399 8.1624C37.8399 9.17521 37.0188 9.99631 36.006 9.99631C34.9932 9.99631 34.1721 9.17521 34.1721 8.1624V1.83392C34.1721 0.821106 34.9932 0 36.006 0C37.0188 0 37.8399 0.821106 37.8399 1.83392V8.1624ZM21.5191 27.1398C21.5191 19.1515 28.0183 12.6523 36.0066 12.6523C43.9941 12.6523 50.4926 19.1515 50.4928 27.1398C50.4928 30.412 49.4201 33.5025 47.3906 36.0773C47.0489 36.5118 46.6738 36.9525 46.277 37.4188L46.2662 37.4315L46.2063 37.5019C44.8175 39.1353 43.2574 40.9704 42.7287 42.8816C42.64 43.2037 42.596 43.8243 42.6021 44.6747V45.7944C42.6021 46.8072 41.781 47.6283 40.7682 47.6283H31.1653C30.1525 47.6283 29.3314 46.8072 29.3314 45.7944V44.6877C29.3382 44.0365 29.3213 43.1912 29.2025 42.7503C28.6768 40.8264 27.2691 39.1925 25.9076 37.6129L25.8831 37.5845C25.4381 37.0684 25.0178 36.5808 24.6177 36.0714C22.5911 33.4981 21.5191 30.409 21.5191 27.1398ZM43.4733 35.054C43.8504 34.6111 44.2064 34.1928 44.5084 33.8086C46.0242 31.8855 46.8247 29.5801 46.8247 27.1398C46.8247 21.1739 41.9717 16.3202 36.0066 16.3202C30.0407 16.3202 25.187 21.1739 25.187 27.1398C25.187 29.5774 25.987 31.882 27.5006 33.804C27.8505 34.249 28.2442 34.7058 28.6611 35.1892L28.6858 35.2181L28.6861 35.2184C30.1613 36.9302 31.9967 39.0602 32.7425 41.7898C32.8513 42.1933 32.9704 42.7924 32.9958 43.9605H38.9406C38.9704 42.8606 39.0876 42.2884 39.193 41.906C39.9383 39.2118 41.7771 37.049 43.3995 35.1408L43.4733 35.054ZM31.1653 48.1489H40.7679C41.7807 48.1489 42.6021 48.97 42.6021 49.9828C42.6021 50.9956 41.781 51.8167 40.7682 51.8167H31.1653C30.1525 51.8167 29.3314 50.9956 29.3314 49.9828C29.3314 48.97 30.1525 48.1489 31.1653 48.1489ZM38.3671 52.3322H33.5659C32.5531 52.3322 31.732 53.1533 31.732 54.1661C31.732 55.179 32.5531 56.0001 33.5659 56.0001H38.3671C39.3799 56.0001 40.201 55.179 40.201 54.1661C40.201 53.1533 39.3799 52.3322 38.3671 52.3322ZM54.9851 25.3059H61.3116C62.3244 25.3059 63.1455 26.127 63.1455 27.1398C63.1455 28.1526 62.3244 28.9737 61.3116 28.9737H54.9851C53.9723 28.9737 53.1512 28.1526 53.1512 27.1398C53.1512 26.127 53.9723 25.3059 54.9851 25.3059ZM18.8611 27.1398C18.8611 26.127 18.04 25.3059 17.0272 25.3059H10.6999C9.68713 25.3059 8.86603 26.127 8.86603 27.1398C8.86603 28.1526 9.68713 28.9737 10.6999 28.9737H17.0272C18.04 28.9737 18.8611 28.1526 18.8611 27.1398ZM50.7221 39.2627C50.0059 38.5465 48.8449 38.5462 48.1285 39.2624C47.4123 39.9786 47.412 41.1396 48.1283 41.8561L52.602 46.3311C52.9603 46.6893 53.4295 46.8683 53.899 46.8683C54.3682 46.8683 54.8375 46.6893 55.1957 46.3313C55.9119 45.6151 55.9121 44.4541 55.1959 43.7377L50.7221 39.2627ZM22.5845 15.5531C22.115 15.5531 21.6458 15.3738 21.2875 15.0156L16.8155 10.5418C16.0995 9.82563 16.0995 8.66464 16.816 7.94843C17.5322 7.23247 18.6932 7.23247 19.4094 7.94892L23.8814 12.4227C24.5974 13.1389 24.5974 14.2999 23.8809 15.0161C23.523 15.3741 23.0537 15.5531 22.5845 15.5531ZM21.2895 39.2626L16.8155 43.7376C16.0993 44.4539 16.0995 45.6151 16.8157 46.3311C17.1737 46.689 17.6432 46.868 18.1124 46.868C18.5816 46.868 19.0511 46.689 19.4094 46.3308L23.8834 41.8558C24.5996 41.1396 24.5993 39.9784 23.8831 39.2624C23.1669 38.5464 22.0057 38.5464 21.2895 39.2626ZM50.7231 15.0156C50.3649 15.3738 49.8954 15.5528 49.4262 15.5528C48.9567 15.5528 48.4874 15.3741 48.1297 15.0158C47.4135 14.2999 47.4133 13.1386 48.1295 12.4224L52.6023 7.94889C53.3182 7.23244 54.4795 7.23244 55.1957 7.94865C55.9119 8.66461 55.9121 9.82585 55.1959 10.5421L50.7231 15.0156Z" fill="#675A54" />
  </g>
  <defs>
    <clipPath id="clip0">
      <rect width="56" height="56" fill="white" transform="translate(8.00574)" />
    </clipPath>
  </defs>
</svg>
